# xmcd
#
# Track frame offsets:
# 150
# 14291
# 25921
# 42654
# 51647
# 64305
# 76363
# 88196
# 101767
# 112423
# 127327
#
# Disc length: 1866 seconds
#
#
# Revision: 1
# Processed by: cddbd v1.5.1PL0 Copyright (c) Steve Scherf et al.
# Submitted via: HACP 1.20
#
DISCID=a907480b
DTITLE=Glen Campbell - Wichita Lineman
DYEAR=1900
DGENRE=
TTITLE0=Wichita Lineman
TTITLE1=(Sittin' On) The Dock of the Bay
TTITLE2=If You Go Away
TTITLE3=Ann
TTITLE4=Words
TTITLE5=Fate of Man
TTITLE6=Dreams of the Everyday Housewife
TTITLE7=The Straight Life
TTITLE8=Reason to Believe
TTITLE9=You Better Sit Down Kids
TTITLE10=That's Not Home
EXTD=
EXTT0=
EXTT1=
EXTT2=
EXTT3=
EXTT4=
EXTT5=
EXTT6=
EXTT7=
EXTT8=
EXTT9=
EXTT10=
PLAYORDER=
